{"title":"DragonHeart 1996 DVD9rip English Klam","uid":5946335,"size":1682279294,"categoryP":"video","categoryS":"movies","magnet":"?xt=urn:btih:85645d41a3117907ec2034970440697f158f6097&amp;dn=DragonHeart+1996+DVD9rip+English+Klam&amp;tr=udp%3A%2F%2Ftracker.openbittorrent.com%3A80&amp;tr=udp%3A%2F%2Fopen.demonii.com%3A1337&amp;tr=udp%3A%2F%2Ftracker.coppersurfer.tk%3A6969&amp;tr=udp%3A%2F%2Fexodus.desync.com%3A6969","seeders":0,"leechers":2,"uploader":"Klambake","files":-1,"time":1289379539,"description":"With: Dennis Quaid, Pete Postlethwaite and the voice of Sean Connery\n\nSet in the 10th Century, a man (Bowen) teams up with the last dragon to remind the people of a long lost code of honor, and inspire them to fight for their freedom from a tyrannical king.\n\nGeneral:\n\nComplete name                    : Klambake\\DragonHeart\\DragonHeart.avi\nFormat                           : AVI\nFormat/Info                      : Audio Video Interleave\nFile size                        : 1.57 GiB\nDuration                         : 1h 38mn\nOverall bit rate                 : 2 272 Kbps\n\nVideo:\n\nFormat                           : MPEG-4 Visual\nFormat profile                   : Simple@L3\nFormat settings, BVOP            : No\nFormat settings, QPel            : No\nFormat settings, GMC             : No warppoints\nFormat settings, Matrix          : Default (H.263)\nCodec ID                         : XVID\nCodec ID/Hint                    : XviD\nDuration                         : 1h 38mn\nBit rate                         : 1 877 Kbps\nWidth                            : 720 pixels\nHeight                           : 576 pixels\nDisplay aspect ratio             : 5:4\nFrame rate                       : 25.000 fps\nStandard                         : PAL\nColor space                      : YUV\nChroma subsampling               : 4:2:0\nBit depth                        : 8 bits\nScan type                        : Progressive\nBits/(Pixel*Frame)               : 0.181\nStream size                      : 1.29 GiB (83%)\nWriting library                  : XviD 1.1.2 (UTC 2006-11-01)\n\nAudio:\n\nFormat                           : AC-3\nFormat/Info                      : Audio Coding 3\nMode extension                   : CM (complete main)\nCodec ID                         : 2000\nDuration                         : 1h 38mn\nBit rate mode                    : Constant\nBit rate                         : 384 Kbps\nChannel(s)                       : 6 channels\nChannel positions                : Front: L C R, Side: L R, LFE\nSampling rate                    : 48.0 KHz\nBit depth                        : 16 bits\nStream size                      : 271 MiB (17%)\nAlignment                        : Aligned on interleaves\nInterleave, duration             : 32 ms (0.80 video frame)\nInterleave, preload duration     : 1024 ms\n","torrent":{"xt":"urn:btih:85645d41a3117907ec2034970440697f158f6097","amp;dn":"DragonHeart+1996+DVD9rip+English+Klam","amp;tr":["udp%3A%2F%2Ftracker.openbittorrent.com%3A80","udp%3A%2F%2Fopen.demonii.com%3A1337","udp%3A%2F%2Ftracker.coppersurfer.tk%3A6969","udp%3A%2F%2Fexodus.desync.com%3A6969"],"infoHash":"85645d41a3117907ec2034970440697f158f6097","infoHashBuffer":{"type":"Buffer","data":[133,100,93,65,163,17,121,7,236,32,52,151,4,64,105,127,21,143,96,151]},"announce":[],"urlList":[]}}